<svg width="59" height="56" viewBox="0 0 59 56" fill="none" xmlns="http://www.w3.org/2000/svg">
<path d="M41.223 8.5709C41.223 13.3045 37.404 17.1418 32.693 17.1418C27.982 17.1418 24.1629 13.3045 24.1629 8.5709C24.1629 3.83732 27.982 0 32.693 0C37.404 0 41.223 3.83732 41.223 8.5709Z" fill="#34BC85"/>
<path d="M28.095 46.2966C12.5786 46.2966 0 33.6578 0 18.0671V4.5169C15.5165 4.5169 28.0957 17.1557 28.0957 32.7464L28.095 46.2966Z" fill="#34BC85"/>
<path d="M59 13.5503C43.4835 13.5503 30.905 26.1891 30.905 41.7798V55.33C46.4214 55.33 59 42.6912 59 27.1005V13.5503Z" fill="#34BC85"/>
</svg>
