<svg width="13" height="13" viewBox="0 0 13 13" fill="none" xmlns="http://www.w3.org/2000/svg">
<g clip-path="url(#clip0_260_236)">
<path d="M11.099 1.90338C8.56434 -0.631287 4.43881 -0.631287 1.90414 1.90338C0.676337 3.13167 0 4.76438 0 6.50081C0 8.23724 0.676337 9.86995 1.90414 11.0977C3.17173 12.3653 4.83666 12.9989 6.50156 12.9989C8.16647 12.9989 9.83142 12.3653 11.099 11.0977C13.6337 8.56308 13.6337 4.43853 11.099 1.90338ZM10.3869 10.3856C8.24454 12.528 4.75858 12.528 2.61622 10.3856C1.5788 9.34821 1.00721 7.96832 1.00721 6.50081C1.00721 5.03329 1.5788 3.6534 2.61622 2.61547C4.75858 0.473114 8.24454 0.473622 10.3869 2.61547C12.5287 4.75782 12.5287 8.24379 10.3869 10.3856Z" fill="#737373"/>
<path d="M8.67144 7.89233L7.24572 6.46864L8.67144 5.04495C8.86784 4.84855 8.86784 4.52977 8.67195 4.33284C8.47504 4.13543 8.15626 4.13593 7.95935 4.33233L6.53264 5.75704L5.10592 4.33233C4.90902 4.13593 4.59024 4.13543 4.39333 4.33284C4.19693 4.52975 4.19693 4.84853 4.39384 5.04495L5.81956 6.46864L4.39384 7.89233C4.19693 8.08873 4.19693 8.40751 4.39333 8.60444C4.49154 8.70314 4.62096 8.75199 4.74989 8.75199C4.87883 8.75199 5.00774 8.70263 5.10595 8.60493L6.53266 7.18022L7.95938 8.60493C8.05759 8.70314 8.1865 8.75199 8.31543 8.75199C8.44437 8.75199 8.57379 8.70263 8.672 8.60444C8.86834 8.40751 8.86834 8.08873 8.67144 7.89233Z" fill="#737373"/>
</g>
<defs>
<clipPath id="clip0_260_236">
<rect width="13" height="13" fill="white"/>
</clipPath>
</defs>
</svg>
