<svg width="26" height="29" viewBox="0 0 26 29" fill="none" xmlns="http://www.w3.org/2000/svg">
<path opacity="0.7" d="M10.3438 7.15506H15.8877C17.535 7.15506 18.7205 7.15588 19.6387 7.26932C20.5416 7.38091 21.1197 7.59534 21.5801 7.97733C22.0405 8.3594 22.3577 8.88851 22.6338 9.75565C22.9145 10.6372 23.1339 11.8025 23.4375 13.4217L24.4668 18.908C24.8932 21.1824 25.2006 22.831 25.2559 24.0974C25.3104 25.3485 25.1118 26.1239 24.6191 26.7176C24.1264 27.3111 23.4009 27.6491 22.1611 27.826C20.9062 28.005 19.2299 28.0056 16.916 28.0056H9.31543C7.00165 28.0056 5.32525 28.005 4.07031 27.826C2.83059 27.6491 2.10506 27.3111 1.6123 26.7176C1.1196 26.1239 0.921027 25.3485 0.975586 24.0974C1.03087 22.831 1.3382 21.1824 1.76465 18.908L2.79395 13.4217C3.09754 11.8024 3.31694 10.6372 3.59766 9.75565C3.87369 8.88877 4.19024 8.35938 4.65039 7.97733C5.11075 7.59527 5.6897 7.38091 6.59277 7.26932C7.51095 7.15587 8.69642 7.15506 10.3438 7.15506Z" stroke="#145959" stroke-width="1.09743"/>
<path d="M13.1162 0.618622C15.6541 0.618804 17.7109 2.67642 17.7109 5.21432V6.04733C17.4084 6.04276 17.0887 6.03848 16.751 6.03757V5.21432C16.751 3.20675 15.1237 1.57876 13.1162 1.57858C11.1086 1.57858 9.48047 3.20664 9.48047 5.21432V6.03854C9.14272 6.03946 8.82308 6.04276 8.52051 6.04733V5.21432C8.52051 2.67631 10.5782 0.618622 13.1162 0.618622Z" stroke="#145959" stroke-width="1.09743"/>
<path d="M16.543 18.7923C16.6312 18.5425 16.9054 18.4112 17.1553 18.4993C17.3742 18.5767 17.5024 18.7967 17.4717 19.0179L17.4482 19.1126C16.8175 20.8969 15.1155 22.1761 13.1143 22.1761C11.113 22.176 9.41103 20.8969 8.78027 19.1126C8.70299 18.8939 8.79399 18.6565 8.98535 18.5413L9.07324 18.4993C9.32323 18.411 9.59718 18.5424 9.68555 18.7923C10.185 20.2051 11.5326 21.216 13.1143 21.2161C14.5972 21.2161 15.8741 20.3273 16.4395 19.052L16.543 18.7923Z" stroke="#145959" stroke-width="1.09743"/>
</svg>
